<?xml version="1.0" encoding="UTF-8"?> <svg xmlns="http://www.w3.org/2000/svg" xmlns:xlink="http://www.w3.org/1999/xlink" version="1.0" id="Ebene_1" x="0px" y="0px" width="156.618px" height="183.817px" viewBox="0 0 156.618 183.817" xml:space="preserve"> <path fill="#FFFFFF" stroke="#FFFFFF" stroke-width="0.5" d="M136.048,81.939c0.957-4.048,1.834-8.133,2.547-12.218 c2.063-11.809,3.095-23.534,3.095-35.071c0-8.626-0.577-17.147-1.732-25.518l-0.62-4.494l-4.432-0.968 c-19.108-4.17-40.821-4.535-62.791-1.055C45,6.909,5.577,27.854,3.912,28.744l-3.251,1.737l-0.178,3.683 c-0.467,9.689-0.23,19.604,0.702,29.468c2.431,25.713,9.521,50.324,20.503,71.175c10.843,20.585,25.032,36.741,41.033,46.722 l3.207,2l3.325-1.799c9.432-5.098,18.479-12.277,26.753-21.107c39.112-4.998,60.361-28.379,60.361-46.764c0-0.004,0-0.007,0-0.01 C156.365,101.904,149.175,90.679,136.048,81.939z"></path> <path fill="#00447A" d="M72.897,7.555c-26.285,4.162-64.994,24.726-66.629,25.6l-0.75,0.401l-0.041,0.85 c-0.456,9.453-0.225,19.128,0.686,28.756c2.37,25.069,9.268,49.038,19.949,69.315c10.431,19.803,24.005,35.297,39.256,44.809 l0.739,0.462l0.768-0.415c32.597-17.619,58.191-59.183,66.796-108.471c3.515-20.129,3.964-39.994,1.334-59.045l-0.143-1.037 l-1.023-0.223C115.333,4.518,94.259,4.171,72.897,7.555z"></path> <path fill="#FFFFFF" d="M86.111,133.909l-10.815,15.242l10.241,10.696c7.126-6.792,13.77-14.927,19.721-24.207l-2.307-3.586 L86.111,133.909z"></path> <path fill="#FFFFFF" d="M41.58,151.022l17.253-7.221l-0.314-17.447l-4.005-10.606l-15.263,3.093l-11.165,8.024l-0.453,1.988 c0.376,0.743,0.747,1.491,1.133,2.225c8.424,15.993,18.92,29.078,30.673,38.348l-0.607-14.927L41.58,151.022z"></path> <polygon fill="#FFFFFF" points="58.518,126.354 69.007,140.497 86.111,133.909 96.278,123.901 83.372,110.704 65.63,112.782 "></polygon> <path fill="#FFFFFF" d="M60.821,170.494c1.772,1.342,3.571,2.598,5.396,3.764c6.152-3.413,12.114-7.772,17.785-12.974l-14.994-3.479 L60.821,170.494z"></path> <path fill="#FFFFFF" d="M133.69,34.65c0-7.896-0.52-15.692-1.529-23.357c-17.898-3.752-38.19-4.039-58.794-0.775 C49.544,14.29,14.034,32.48,8.453,35.395c-0.124,2.818-0.203,5.651-0.203,8.5c0,6.295,0.3,12.649,0.899,18.983 c1.778,18.809,6.147,36.973,12.769,53.376c4.127-4.716,8.696-8.487,8.696-8.487l-1.787,13.169l10.423-2.096l10.073-9.022 l-2.191-11.181l11.827,3.768L79.423,96.8l-9.345,8.571l13.293,5.333l17.354,4.303l0.111-7.94l6.713,14.48l4.227,2.91 c8.924-16.791,15.421-35.966,18.938-56.112C132.698,56.991,133.69,45.726,133.69,34.65z"></path> <path fill="#00447A" d="M16.249,48.754l-1.127,1.895c-0.157,0.259-0.256,0.532-0.295,0.799c-0.066,0.453-0.052,0.492,0.142,0.918 l-3.631,0.361c0.91-1.083,1.205-1.477,1.813-2.531l6.144-10.497l-0.453-0.685l5.798-0.575l2.913,10.895 c0.182,0.65,0.489,1.248,0.858,1.698l-6.44,0.639c0.313-0.517,0.365-0.604,0.407-0.891c0.045-0.308,0.042-0.693-0.036-0.969 l-0.456-1.616L16.249,48.754z M21.363,46.099l-1.176-4.26l-2.616,4.636L21.363,46.099z"></path> <path fill="#00447A" d="M31.731,39.964c0.184-1.254,0.095-1.731-0.07-2.222l9.971-0.99c2.729-0.271,3.535,0.703,3.144,3.375 l-0.831,5.674c-0.392,2.673-1.511,3.838-4.239,4.108l-9.972,0.99c0.316-0.538,0.549-1.047,0.732-2.302L31.731,39.964z M35.351,48.195l2.548-0.253c0.802-0.08,0.95-0.277,1.079-1.161l0.976-6.661c0.129-0.884,0.036-1.058-0.767-0.978l-2.548,0.253 L35.351,48.195z"></path> <path fill="#00447A" d="M55.835,46.161c1.144-0.113,1.733-0.354,2.258-0.568l-0.812,2.572l-11.316,1.124 c0.316-0.538,0.549-1.048,0.732-2.302l1.264-8.635c0.184-1.254,0.096-1.732-0.07-2.222l11.115-1.104l0.031,2.489 c-0.498-0.112-1.032-0.242-2.176-0.128l-3.993,0.396l-0.452,3.084l3.491-0.347c1.123-0.112,1.712-0.353,2.258-0.569l-0.421,2.878 c-0.498-0.112-1.032-0.242-2.156-0.13l-3.491,0.347l-0.518,3.536L55.835,46.161z"></path> <path fill="#00447A" d="M69.518,44.803c0.562-0.056,1.577-0.237,2.17-0.641l-0.804,2.652l-11.075,1.1 c0.316-0.538,0.549-1.047,0.732-2.301l1.265-8.636c0.184-1.254,0.095-1.731-0.07-2.222l5.698-0.565 c-0.316,0.538-0.549,1.047-0.732,2.301l-1.276,8.717L69.518,44.803z"></path> <path fill="#00447A" d="M76.739,42.749l-1.128,1.895c-0.156,0.259-0.256,0.532-0.295,0.799c-0.066,0.452-0.052,0.491,0.143,0.917 l-3.631,0.361c0.91-1.083,1.205-1.477,1.814-2.53l6.144-10.498l-0.454-0.685l5.798-0.575l2.913,10.895 c0.181,0.65,0.489,1.248,0.858,1.698l-6.44,0.64c0.313-0.518,0.365-0.604,0.408-0.892c0.045-0.308,0.042-0.693-0.036-0.969 l-0.456-1.616L76.739,42.749z M81.853,40.093l-1.176-4.26l-2.616,4.636L81.853,40.093z"></path> <path fill="#00447A" d="M90.586,44.858c0.316-0.538,0.549-1.047,0.732-2.301l1.264-8.635c0.184-1.254,0.096-1.731-0.07-2.222 l5.698-0.565c-0.316,0.538-0.549,1.047-0.732,2.301l-1.264,8.635c-0.184,1.254-0.095,1.731,0.07,2.222L90.586,44.858z"></path> <path fill="#00447A" d="M101.029,33.083c0.184-1.254,0.095-1.732-0.07-2.222l9.972-0.99c2.729-0.271,3.535,0.703,3.144,3.375 l-0.831,5.675c-0.392,2.673-1.511,3.837-4.24,4.108l-9.971,0.99c0.316-0.538,0.548-1.047,0.732-2.301L101.029,33.083z M104.648,41.314l2.548-0.253c0.803-0.079,0.95-0.276,1.08-1.16l0.975-6.662c0.129-0.884,0.036-1.057-0.766-0.978l-2.548,0.253 L104.648,41.314z"></path> <path fill="#00447A" d="M125.133,39.281c1.144-0.114,1.732-0.354,2.258-0.569l-0.812,2.573l-11.315,1.123 c0.316-0.538,0.549-1.047,0.732-2.301l1.264-8.636c0.184-1.254,0.095-1.731-0.07-2.222l11.115-1.104l0.031,2.489 c-0.498-0.113-1.032-0.242-2.176-0.129l-3.993,0.396l-0.451,3.084l3.491-0.346c1.124-0.112,1.712-0.353,2.258-0.569l-0.421,2.878 c-0.498-0.113-1.032-0.242-2.156-0.13l-3.491,0.347l-0.518,3.536L125.133,39.281z"></path> <path fill="#00447A" d="M22.325,63.876c1.112-0.11,1.21-0.236,1.35-1.191l0.871-5.947c0.177-1.206,0.159-1.419-0.11-1.888 l2.518-0.25c-0.417,0.537-0.498,0.759-0.675,1.965l-0.802,5.479c-0.358,2.445-1.14,3.382-3.412,3.607l-5.297,0.525 c-2.043,0.203-2.736-0.785-2.408-3.029l0.814-5.562c0.15-1.022,0.078-1.411-0.057-1.81l4.643-0.461 c-0.257,0.438-0.447,0.853-0.597,1.875l-0.893,6.098c-0.104,0.704,0.147,0.977,0.85,0.906L22.325,63.876z"></path> <path fill="#00447A" d="M30.558,56.059l-0.033,0.003l-1.018,6.952c-0.177,1.206-0.159,1.419,0.11,1.888l-2.518,0.25 c0.417-0.537,0.498-0.76,0.675-1.966l1.005-6.868c0.177-1.206,0.16-1.419-0.11-1.888l5.607-0.557l2.97,8.323l0.049-0.005 l0.999-6.818c0.176-1.207,0.16-1.419-0.11-1.888l2.518-0.25c-0.417,0.537-0.498,0.759-0.674,1.965l-1.288,8.795l-5.166,0.513 L30.558,56.059z"></path> <path fill="#00447A" d="M41.29,63.743c0.257-0.438,0.447-0.853,0.597-1.875l1.03-7.036c0.15-1.022,0.078-1.411-0.057-1.811 l4.643-0.461c-0.257,0.438-0.447,0.854-0.597,1.875l-1.03,7.036c-0.149,1.022-0.077,1.411,0.058,1.81L41.29,63.743z"></path> <path fill="#00447A" d="M59.453,51.374l0.003,2.179c-0.4-0.241-0.688-0.361-1.424-0.288l-1.815,0.18l-1.04,7.104 c-0.149,1.021-0.077,1.411,0.058,1.81l-4.643,0.461c0.257-0.438,0.447-0.853,0.597-1.875l1.04-7.103l-1.815,0.18 c-0.736,0.073-1.068,0.255-1.551,0.583l0.65-2.244L59.453,51.374z"></path> <path fill="#00447A" d="M67.625,59.379c0.932-0.093,1.412-0.289,1.84-0.464l-0.662,2.097l-9.22,0.916 c0.257-0.438,0.447-0.854,0.597-1.875l1.03-7.036c0.149-1.021,0.077-1.411-0.058-1.811l9.057-0.899l0.025,2.028 c-0.405-0.092-0.841-0.197-1.772-0.104l-3.254,0.323l-0.368,2.513l2.845-0.282c0.916-0.091,1.395-0.287,1.84-0.463l-0.343,2.345 c-0.405-0.092-0.841-0.197-1.757-0.106l-2.845,0.282l-0.422,2.881L67.625,59.379z"></path> <path fill="#00447A" d="M72.327,51.912c0.149-1.022,0.078-1.411-0.058-1.811l8.125-0.807c2.223-0.221,2.88,0.572,2.562,2.75 l-0.677,4.624c-0.319,2.178-1.231,3.127-3.454,3.348L70.7,60.823c0.257-0.438,0.447-0.854,0.597-1.875L72.327,51.912z M75.275,58.619l2.076-0.206c0.654-0.065,0.774-0.226,0.879-0.946l0.795-5.428c0.105-0.72,0.029-0.861-0.625-0.796l-2.076,0.206 L75.275,58.619z"></path> <path fill="#00447A" d="M95.687,56.526c-0.149,1.022-0.078,1.411,0.057,1.811l-4.643,0.461c0.257-0.438,0.447-0.854,0.597-1.875 l1.03-7.036c0.149-1.022,0.078-1.411-0.057-1.811l9.057-0.899l0.009,2.03c-0.389-0.093-0.825-0.199-1.756-0.106l-3.253,0.323 l-0.368,2.513l2.844-0.283c0.916-0.091,1.396-0.287,1.84-0.463l-0.343,2.346c-0.405-0.092-0.841-0.197-1.756-0.106l-2.845,0.282 L95.687,56.526z"></path> <path fill="#00447A" d="M103.006,54.842l3.858-0.383l-0.412,2.814l-3.858,0.383L103.006,54.842z"></path> <path fill="#00447A" d="M119.752,47.418c-0.417-0.124-0.792-0.202-1.561-0.126l-2.861,0.284c-0.523,0.052-0.809,0.246-0.885,0.765 l-0.849,5.797c-0.076,0.519,0.161,0.661,0.684,0.608l2.256-0.224c1.602-0.159,1.881-0.302,2.462-0.641l-0.662,2.212l-6.441,0.64 c-1.7,0.169-2.525-0.575-2.187-2.887l0.647-4.423c0.338-2.312,1.409-3.243,3.109-3.412l6.278-0.624L119.752,47.418z"></path> <path fill="#00447A" d="M121.299,53.026l3.858-0.383l-0.412,2.814l-3.858,0.383L121.299,53.026z"></path> <path fill="#E30043" d="M67.948,69.305c-20.847-0.007-40.808,4.18-56.22,11.788c0.564,2.999,1.195,5.969,1.891,8.909l0.069-0.047 C26.922,80.854,46.842,75.61,69.78,75.188c27.439-0.507,53.923,7.603,67.471,20.659c6.184,5.96,9.384,12.51,9.512,19.467 c0.139,7.524-3.815,15.205-11.435,22.213c-7.056,6.49-17.15,12.207-28.422,16.098l0.15,0.477 c27.492-7.903,44.567-23.326,44.562-40.25C151.61,88.886,114.858,69.319,67.948,69.305z"></path> <path fill="#F8B323" d="M16.651,100.993C31.993,90.061,48.858,84.2,66.777,83.575c26.833-0.937,52.393,6.125,65.117,17.992 c5.277,4.922,8.056,10.337,8.256,16.096c0.442,12.668-17.842,27.516-35.195,33.436l0.155,0.476c0.002-0.001,0.007-0.002,0.007-0.003 c24.898-7.815,39.694-21.111,39.694-35.628c0-0.132-0.001-0.263-0.003-0.394c-0.117-6.336-3.05-12.319-8.718-17.781 c-13.176-12.699-39.613-20.573-67.352-20.062c-20.935,0.387-40.78,5.84-54.469,14.965c0.711,2.823,1.479,5.617,2.31,8.373 L16.651,100.993z"></path> <path fill="#00447A" d="M20.196,111.599c12.985-10.751,27.183-16.994,43.403-19.085c8.739-1.126,25.201-0.575,40.695,3.298 c17.199,4.299,27.279,11.381,28.383,19.942c2.103,16.311-13.601,25.521-30.884,33.046l0.177,0.467 c22.135-7.238,36.165-19.741,35.743-31.852c-0.319-9.132-8.039-17.425-21.739-23.353c-13.175-5.701-30.899-8.615-48.629-7.996 c-22.409,0.782-40.941,11.179-50.033,17.341c0.881,2.787,1.827,5.533,2.83,8.237L20.196,111.599z"></path> <path fill="#00447A" d="M20.196,111.599c12.985-10.751,27.183-16.994,43.403-19.085c8.739-1.126,25.201-0.575,40.695,3.298 c17.199,4.299,27.279,11.381,28.383,19.942c2.103,16.311-13.601,25.521-30.884,33.046l0.177,0.467 c22.135-7.238,36.165-19.741,35.743-31.852c-0.319-9.132-8.039-17.425-21.739-23.353c-13.175-5.701-30.899-8.615-48.629-7.996 c-22.409,0.782-40.941,11.179-50.033,17.341c0.881,2.787,1.827,5.533,2.83,8.237L20.196,111.599z"></path> </svg> 